<svg width="513" height="513" viewBox="0 0 513 513" fill="none" xmlns="http://www.w3.org/2000/svg">
<rect x="0.818359" y="0.526611" width="512" height="512" rx="100" fill="#FFD37D"/>
<path d="M186.206 430.553C248.507 304.245 187.988 246.716 149.194 221.437M210.224 303.35C270.768 288.646 329.631 289.501 370.867 378.283M274.27 296.678C215.417 149.332 312.149 143.465 288.193 64.9632M370.867 378.283C372.215 375.819 373.668 373.411 375.233 371.076C392.209 345.762 404.2 326.032 410.269 315.756C413.056 311.039 412.551 305.126 409.251 300.752C400.652 289.358 384.199 266.202 375.233 244.761C366.018 222.718 364.642 188.495 364.563 171.825C364.534 165.489 362.526 159.301 358.607 154.321L289.349 66.3367C288.976 65.8626 288.591 65.4048 288.193 64.9632M370.867 378.283C362.133 394.241 357.78 412.537 355.662 428.28C353.2 446.563 335.311 460.845 317.533 455.914C292.203 448.934 262.874 438.049 236.484 436.02C233.004 435.753 196.037 432.949 196.037 432.949C189.498 432.484 183.36 429.626 178.793 424.923L109.1 353.149C101.484 345.307 99.4221 333.61 103.898 323.636C103.898 323.636 146.992 228.92 148.593 223.994C148.752 223.502 148.955 222.63 149.194 221.437M288.193 64.9632C278.424 54.1123 261.554 53.0881 250.533 63.003L168.088 137.172C163.49 141.308 160.47 146.915 159.548 153.031C156.415 173.803 151.343 210.683 149.194 221.437" stroke="#0C0C0C" stroke-width="12"/>
</svg>
