<svg width="833" height="832" viewBox="0 0 833 832" fill="none" xmlns="http://www.w3.org/2000/svg">
<mask id="mask0_1_88" style="mask-type:luminance" maskUnits="userSpaceOnUse" x="0" y="0" width="833" height="832">
<path fill-rule="evenodd" clip-rule="evenodd" d="M832.656 259.119C832.656 249.242 832.66 239.364 832.6 229.486C832.55 221.165 832.454 212.846 832.228 204.529C831.739 186.402 830.67 168.119 827.446 150.194C824.177 132.01 818.837 115.086 810.424 98.5644C802.152 82.3253 791.347 67.4655 778.455 54.5826C765.567 41.6998 750.703 30.902 734.458 22.6356C717.919 14.2197 700.977 8.88238 682.773 5.61396C664.846 2.39502 646.558 1.32776 628.431 0.838055C620.108 0.612891 611.785 0.517979 603.46 0.466484C593.577 0.405901 583.694 0.41095 573.811 0.41095L459.061 0H373.236L260.516 0.41095C250.614 0.41095 240.712 0.405901 230.81 0.466484C222.467 0.517979 214.129 0.612891 205.79 0.838055C187.621 1.32776 169.292 2.39603 151.322 5.61901C133.094 8.88641 116.127 14.2217 99.5656 22.6315C83.2862 30.899 68.39 41.6978 55.4739 54.5826C42.5599 67.4645 31.7349 82.3213 23.4482 98.5573C15.0112 115.087 9.66178 132.021 6.38429 150.215C3.15728 168.133 2.08801 186.41 1.59628 204.529C1.37213 212.847 1.2752 221.166 1.22471 229.486C1.16413 239.365 0.65625 251.636 0.65625 261.514L0.659279 372.672L0.65625 459.416L1.16918 572.936C1.16918 582.827 1.16514 592.718 1.22471 602.609C1.2752 610.941 1.37213 619.271 1.59729 627.6C2.08801 645.751 3.1593 664.06 6.38933 682.009C9.66581 700.217 15.0142 717.165 23.4442 733.708C31.7318 749.971 42.5589 764.85 55.4739 777.751C68.389 790.652 83.2811 801.464 99.5575 809.742C116.129 818.169 133.104 823.513 151.343 826.786C169.305 830.01 187.628 831.079 205.79 831.569C214.129 831.794 222.468 831.89 230.811 831.94C240.713 832.001 250.614 831.997 260.516 831.997L374.255 832H460.292L573.811 831.996C583.694 831.996 593.577 832.001 603.46 831.94C611.785 831.89 620.108 831.794 628.431 831.569C646.565 831.078 664.859 830.008 682.794 826.782C700.987 823.509 717.921 818.167 734.451 809.745C750.699 801.468 765.566 790.654 778.455 777.751C791.345 764.852 802.149 749.975 810.421 733.715C818.839 717.164 824.179 700.208 827.45 681.988C830.671 664.046 831.739 645.744 832.229 627.6C832.454 619.27 832.55 610.94 832.6 602.609C832.661 592.718 832.656 582.827 832.656 572.936C832.656 572.936 832.65 461.42 832.65 459.416V372.581C832.65 371.101 832.656 259.119 832.656 259.119Z" fill="white"/>
</mask>
<g mask="url(#mask0_1_88)">
<rect width="832" height="832" transform="translate(1 -0.236816)" fill="#989898"/>
<rect width="832" height="832" transform="translate(1 -0.236816)" fill="url(#paint0_linear_1_88)"/>
<rect width="832" height="832" transform="translate(1 -0.236816)" fill="url(#paint1_radial_1_88)"/>
<g filter="url(#filter0_f_1_88)">
<path d="M578.139 708.247C573.936 739.405 543.389 763.745 513.032 755.342C469.779 743.447 419.698 724.895 374.635 721.438C368.694 720.982 305.571 716.205 305.571 716.205C294.405 715.412 283.925 710.541 276.126 702.526L157.121 580.207C144.116 566.842 140.596 546.908 148.238 529.909C148.238 529.909 221.824 368.491 224.557 360.097C227.29 351.703 237.32 278.49 243.263 239.159C244.839 228.736 249.994 219.181 257.846 212.131L398.625 85.7311C418.211 68.1463 448.613 70.7522 464.907 91.4125L583.168 241.358C589.859 249.845 593.288 260.391 593.339 271.189C593.474 299.598 595.822 357.923 611.559 395.489C626.867 432.029 654.962 471.493 669.646 490.911C675.28 498.364 676.143 508.442 671.383 516.48C661.02 533.993 640.545 567.617 611.559 610.759C591.575 640.505 582.314 677.275 578.139 708.247Z" fill="black" fill-opacity="0.26"/>
</g>
<path d="M573.925 702.042C569.711 733.341 539.079 757.792 508.639 749.351C465.265 737.402 415.046 718.766 369.858 715.293C363.901 714.835 300.603 710.036 300.603 710.036C289.406 709.239 278.897 704.346 271.077 696.295L151.742 573.42C138.701 559.994 135.171 539.97 142.834 522.894C142.834 522.894 216.624 360.742 219.364 352.31C222.105 343.877 232.163 270.332 238.123 230.822C239.703 220.352 244.872 210.754 252.746 203.672L393.914 76.6972C413.555 59.0325 444.041 61.6503 460.38 82.4044L578.968 233.031C585.678 241.557 589.117 252.151 589.167 262.998C589.303 291.536 591.658 350.126 607.437 387.862C622.788 424.569 650.961 464.212 665.685 483.718C671.335 491.205 672.201 501.329 667.427 509.403C657.036 526.996 636.504 560.773 607.437 604.11C587.398 633.992 578.112 670.929 573.925 702.042Z" fill="#0E0E0E"/>
<path d="M283.936 705.583C339.354 593.074 337.808 512.472 314.226 454.949C292.523 402.016 252.158 368.627 220.342 347.906C219.672 350.9 218.701 353.822 217.443 356.628L142.832 522.894C135.169 539.97 138.699 559.994 151.741 573.42L271.075 696.295C274.819 700.149 279.179 703.28 283.936 705.583Z" fill="url(#paint2_radial_1_88)"/>
<path d="M508.653 749.334C539.087 757.776 569.715 733.325 573.928 702.025C577.557 675.078 585.006 643.759 599.956 616.442C565.655 542.606 524.176 504.317 478.704 487.346C430.571 469.383 377.966 475.305 324.665 488.249C336.58 542.474 329.448 613.293 283.998 705.573C289.173 708.078 294.817 709.604 300.647 710.02C300.647 710.02 333.443 712.782 372.447 715.542C411.45 718.302 469.492 738.474 508.653 749.334Z" fill="url(#paint3_radial_1_88)"/>
<path d="M434.75 477.226C449.726 478.79 464.404 482.018 478.689 487.348C524.169 504.32 565.658 542.611 599.964 616.439C602.271 612.225 604.758 608.105 607.438 604.11C636.503 560.772 657.035 526.995 667.426 509.403C672.2 501.328 671.334 491.205 665.683 483.718C650.96 464.211 622.787 424.569 607.438 387.862C591.656 350.125 589.301 291.535 589.168 262.998C589.116 252.151 585.677 241.557 578.967 233.031L460.379 82.4041C459.746 81.5986 459.089 80.8207 458.414 80.07C467.115 108.586 466.526 131.525 461.158 152.379C456.181 171.71 447.096 189.25 437.5 207.776L437.499 207.778C434.28 213.992 431.005 220.316 427.806 226.858C415.075 252.901 403.579 282.372 401.884 321.891C400.188 361.411 408.289 410.98 434.754 477.224L434.75 477.226Z" fill="url(#paint4_radial_1_88)"/>
<path d="M434.734 477.224C408.271 410.982 400.166 361.411 401.863 321.889C403.559 282.367 415.055 252.896 427.788 226.852C430.987 220.309 434.263 213.984 437.482 207.769C447.076 189.243 456.161 171.705 461.138 152.375C466.506 131.517 467.095 108.572 458.386 80.0437C441.656 61.476 412.777 59.7261 393.908 76.6972L252.74 203.672C244.866 210.754 239.697 220.352 238.117 230.822L220.932 344.741C220.772 345.797 220.575 346.848 220.342 347.891C252.16 368.612 292.531 402.004 314.236 454.944C318.475 465.285 322.003 476.368 324.616 488.252C362.101 479.149 399.245 473.519 434.734 477.224Z" fill="url(#paint5_radial_1_88)"/>
<path fill-rule="evenodd" clip-rule="evenodd" d="M402.14 319.286C400.438 358.49 405.332 403.463 431.739 469.568L423.447 468.82C399.755 399.837 394.599 364.468 396.324 324.722C398.051 284.956 410.899 254.378 423.704 228.295C426.947 221.689 434.514 209.284 437.751 203.057C447.339 184.621 453.72 174.882 459.198 158.031C466.855 134.485 465.198 123.333 464.325 112.234C470.404 152.354 447.331 187.241 429.888 222.773C417.182 248.657 403.84 280.101 402.14 319.286Z" fill="url(#paint6_radial_1_88)"/>
<path fill-rule="evenodd" clip-rule="evenodd" d="M322.034 457.864C325.166 465.107 328.125 470.955 329.993 479.916L323.073 481.472C320.194 471.008 317.969 463.564 313.984 454.588C290.138 398.331 251.869 369.393 220.594 348.168C258.37 368.491 297.142 400.301 322.034 457.864Z" fill="url(#paint7_radial_1_88)"/>
<path fill-rule="evenodd" clip-rule="evenodd" d="M330.395 486.994C343.608 548.484 328.867 626.602 285.427 702.537C321.737 627.281 339.339 555.002 324.68 488.22L330.395 486.994Z" fill="url(#paint8_radial_1_88)"/>
<path fill-rule="evenodd" clip-rule="evenodd" d="M480.329 481.463C551.553 508.117 578.978 566.641 599.476 615.461C574.16 564.34 538.963 507.884 477.774 486.928C431.215 470.983 391.895 472.874 324.675 488.129L323.177 481.463C394.517 465.21 431.816 463.309 480.329 481.463Z" fill="url(#paint9_radial_1_88)"/>
<g style="mix-blend-mode:screen" filter="url(#filter1_i_1_88)">
<path fill-rule="evenodd" clip-rule="evenodd" d="M833 259.119C833 249.242 833.004 239.364 832.943 229.486C832.894 221.165 832.798 212.846 832.572 204.529C832.083 186.402 831.014 168.119 827.79 150.194C824.52 132.01 819.181 115.086 810.767 98.5644C802.496 82.3253 791.691 67.4655 778.799 54.5826C765.91 41.6998 751.046 30.902 734.801 22.6356C718.263 14.2197 701.321 8.88238 683.117 5.61396C665.19 2.39502 646.902 1.32776 628.775 0.838055C620.452 0.612891 612.129 0.517979 603.804 0.466484C593.921 0.405901 584.038 0.41095 574.155 0.41095L459.404 0H373.58L260.86 0.41095C250.958 0.41095 241.055 0.405901 231.153 0.466484C222.811 0.517979 214.473 0.612891 206.134 0.838055C187.964 1.32776 169.635 2.39603 151.666 5.61901C133.437 8.88641 116.47 14.2217 99.9093 22.6315C83.6299 30.899 68.7338 41.6978 55.8177 54.5826C42.9036 67.4645 32.0786 82.3213 23.792 98.5573C15.3549 115.087 10.0055 132.021 6.72804 150.215C3.50103 168.133 2.43176 186.41 1.94003 204.529C1.71588 212.847 1.61895 221.166 1.56846 229.486C1.50788 239.365 1 251.636 1 261.514L1.00303 372.672L1 459.416L1.51293 572.936C1.51293 582.827 1.50889 592.718 1.56846 602.609C1.61895 610.941 1.71588 619.271 1.94104 627.6C2.43176 645.751 3.50305 664.06 6.73308 682.009C10.0096 700.217 15.358 717.165 23.7879 733.708C32.0756 749.971 42.9026 764.85 55.8177 777.751C68.7328 790.652 83.6249 801.464 99.9012 809.742C116.472 818.169 133.448 823.513 151.687 826.786C169.648 830.01 187.971 831.079 206.134 831.569C214.473 831.794 222.812 831.89 231.154 831.94C241.056 832.001 250.958 831.997 260.86 831.997L374.599 832H460.636L574.155 831.996C584.038 831.996 593.921 832.001 603.804 831.94C612.129 831.89 620.452 831.794 628.775 831.569C646.909 831.078 665.203 830.008 683.138 826.782C701.331 823.509 718.264 818.167 734.794 809.745C751.042 801.468 765.909 790.654 778.799 777.751C791.689 764.852 802.493 749.975 810.764 733.715C819.183 717.164 824.522 700.208 827.794 681.988C831.015 664.046 832.083 645.744 832.573 627.6C832.798 619.27 832.894 610.94 832.943 602.609C833.005 592.718 833 582.827 833 572.936C833 572.936 832.994 461.42 832.994 459.416V372.581C832.994 371.101 833 259.119 833 259.119Z" fill="black"/>
</g>
</g>
<defs>
<filter id="filter0_f_1_88" x="126.244" y="56.0619" width="566.229" height="718.957" filterUnits="userSpaceOnUse" color-interpolation-filters="sRGB">
<feFlood flood-opacity="0" result="BackgroundImageFix"/>
<feBlend mode="normal" in="SourceGraphic" in2="BackgroundImageFix" result="shape"/>
<feGaussianBlur stdDeviation="9" result="effect1_foregroundBlur_1_88"/>
</filter>
<filter id="filter1_i_1_88" x="1" y="0" width="832" height="834" filterUnits="userSpaceOnUse" color-interpolation-filters="sRGB">
<feFlood flood-opacity="0" result="BackgroundImageFix"/>
<feBlend mode="normal" in="SourceGraphic" in2="BackgroundImageFix" result="shape"/>
<feColorMatrix in="SourceAlpha" type="matrix" values="0 0 0 0 0 0 0 0 0 0 0 0 0 0 0 0 0 0 127 0" result="hardAlpha"/>
<feOffset dy="6"/>
<feGaussianBlur stdDeviation="1"/>
<feComposite in2="hardAlpha" operator="arithmetic" k2="-1" k3="1"/>
<feColorMatrix type="matrix" values="0 0 0 0 1 0 0 0 0 1 0 0 0 0 1 0 0 0 1 0"/>
<feBlend mode="normal" in2="shape" result="effect1_innerShadow_1_88"/>
</filter>
<linearGradient id="paint0_linear_1_88" x1="416" y1="28.7868" x2="416" y2="756.904" gradientUnits="userSpaceOnUse">
<stop stop-color="white" stop-opacity="0.88"/>
<stop offset="1" stop-color="white" stop-opacity="0"/>
</linearGradient>
<radialGradient id="paint1_radial_1_88" cx="0" cy="0" r="1" gradientUnits="userSpaceOnUse" gradientTransform="translate(416 43.9389) rotate(90) scale(661.643 1075.08)">
<stop stop-color="#FFD37D" stop-opacity="0.95"/>
<stop offset="1" stop-color="#FFD37D" stop-opacity="0.88"/>
</radialGradient>
<radialGradient id="paint2_radial_1_88" cx="0" cy="0" r="1" gradientUnits="userSpaceOnUse" gradientTransform="translate(277.975 694.477) rotate(-104.574) scale(312.164 208.025)">
<stop offset="0.32" stop-color="white" stop-opacity="0.59"/>
<stop offset="1" stop-color="#333333" stop-opacity="0.57"/>
</radialGradient>
<radialGradient id="paint3_radial_1_88" cx="0" cy="0" r="1" gradientUnits="userSpaceOnUse" gradientTransform="translate(515.284 765.976) rotate(-119.744) scale(268.784 268.784)">
<stop stop-color="#565656"/>
<stop offset="1" stop-color="white" stop-opacity="0.71"/>
</radialGradient>
<radialGradient id="paint4_radial_1_88" cx="0" cy="0" r="1" gradientUnits="userSpaceOnUse" gradientTransform="translate(544.033 566.121) rotate(-82.4846) scale(512.246 378.451)">
<stop stop-color="#7E7E7E" stop-opacity="0.91"/>
<stop offset="1" stop-color="white" stop-opacity="0.6"/>
</radialGradient>
<radialGradient id="paint5_radial_1_88" cx="0" cy="0" r="1" gradientUnits="userSpaceOnUse" gradientTransform="translate(327.796 501.726) rotate(-66.5392) scale(476.11 324.696)">
<stop stop-color="white"/>
<stop offset="1" stop-color="#414141"/>
</radialGradient>
<radialGradient id="paint6_radial_1_88" cx="0" cy="0" r="1" gradientUnits="userSpaceOnUse" gradientTransform="translate(477.033 236.49) rotate(102.236) scale(227.604 153.482)">
<stop stop-color="#FFD37D" stop-opacity="0"/>
<stop offset="1" stop-color="#FFD37D" stop-opacity="0.17"/>
</radialGradient>
<radialGradient id="paint7_radial_1_88" cx="0" cy="0" r="1" gradientUnits="userSpaceOnUse" gradientTransform="translate(210.379 359.767) rotate(45.3237) scale(167.71 357.205)">
<stop stop-color="#FFD37D" stop-opacity="0.2"/>
<stop offset="1" stop-color="white" stop-opacity="0.44"/>
</radialGradient>
<radialGradient id="paint8_radial_1_88" cx="0" cy="0" r="1" gradientUnits="userSpaceOnUse" gradientTransform="translate(336.995 439.124) rotate(80.2016) scale(196.566 417.419)">
<stop stop-color="#FFD37D" stop-opacity="0.12"/>
<stop offset="1" stop-color="#FFD37D" stop-opacity="0.35"/>
</radialGradient>
<radialGradient id="paint9_radial_1_88" cx="0" cy="0" r="1" gradientUnits="userSpaceOnUse" gradientTransform="translate(597.631 599.618) rotate(-152.297) scale(299.519 942.568)">
<stop stop-color="#FFD37D" stop-opacity="0.21"/>
<stop offset="0.46738" stop-color="white" stop-opacity="0.19"/>
<stop offset="1" stop-color="white" stop-opacity="0.29"/>
</radialGradient>
</defs>
</svg>
