<svg width="833" height="832" viewBox="0 0 833 832" fill="none" xmlns="http://www.w3.org/2000/svg">
<mask id="mask0_1_32" style="mask-type:luminance" maskUnits="userSpaceOnUse" x="0" y="0" width="833" height="832">
<path fill-rule="evenodd" clip-rule="evenodd" d="M832.656 259.119C832.656 249.242 832.66 239.364 832.6 229.486C832.55 221.165 832.454 212.846 832.228 204.529C831.739 186.402 830.67 168.119 827.446 150.194C824.177 132.01 818.837 115.086 810.424 98.5644C802.152 82.3253 791.347 67.4655 778.455 54.5826C765.567 41.6998 750.703 30.902 734.458 22.6356C717.919 14.2197 700.977 8.88238 682.773 5.61396C664.846 2.39502 646.558 1.32776 628.431 0.838055C620.108 0.612891 611.785 0.517979 603.46 0.466484C593.577 0.405901 583.694 0.41095 573.811 0.41095L459.061 0H373.236L260.516 0.41095C250.614 0.41095 240.712 0.405901 230.81 0.466484C222.467 0.517979 214.129 0.612891 205.79 0.838055C187.621 1.32776 169.292 2.39603 151.322 5.61901C133.094 8.88641 116.127 14.2217 99.5656 22.6315C83.2862 30.899 68.39 41.6978 55.4739 54.5826C42.5599 67.4645 31.7349 82.3213 23.4482 98.5573C15.0112 115.087 9.66178 132.021 6.38429 150.215C3.15728 168.133 2.08801 186.41 1.59628 204.529C1.37213 212.847 1.2752 221.166 1.22471 229.486C1.16413 239.365 0.65625 251.636 0.65625 261.514L0.659279 372.672L0.65625 459.416L1.16918 572.936C1.16918 582.827 1.16514 592.718 1.22471 602.609C1.2752 610.941 1.37213 619.271 1.59729 627.6C2.08801 645.751 3.1593 664.06 6.38933 682.009C9.66581 700.217 15.0142 717.165 23.4442 733.708C31.7318 749.971 42.5589 764.85 55.4739 777.751C68.389 790.652 83.2811 801.464 99.5575 809.742C116.129 818.169 133.104 823.513 151.343 826.786C169.305 830.01 187.628 831.079 205.79 831.569C214.129 831.794 222.468 831.89 230.811 831.94C240.713 832.001 250.614 831.997 260.516 831.997L374.255 832H460.292L573.811 831.996C583.694 831.996 593.577 832.001 603.46 831.94C611.785 831.89 620.108 831.794 628.431 831.569C646.565 831.078 664.859 830.008 682.794 826.782C700.987 823.509 717.921 818.167 734.451 809.745C750.699 801.468 765.566 790.654 778.455 777.751C791.345 764.852 802.149 749.975 810.421 733.715C818.839 717.164 824.179 700.208 827.45 681.988C830.671 664.046 831.739 645.744 832.229 627.6C832.454 619.27 832.55 610.94 832.6 602.609C832.661 592.718 832.656 582.827 832.656 572.936C832.656 572.936 832.65 461.42 832.65 459.416V372.581C832.65 371.101 832.656 259.119 832.656 259.119Z" fill="white"/>
</mask>
<g mask="url(#mask0_1_32)">
<rect width="832" height="832" transform="translate(1 -0.236816)" fill="#FFD37D"/>
<rect width="832" height="832" transform="translate(1 -0.236816)" fill="url(#paint0_radial_1_32)"/>
<rect width="832" height="832" transform="translate(1 -0.236816)" fill="url(#paint1_radial_1_32)"/>
<g filter="url(#filter0_f_1_32)">
<path d="M578.288 707.265C574.086 738.423 543.539 762.764 513.182 754.36C469.928 742.465 419.848 723.913 374.785 720.456C368.844 720.001 305.72 715.223 305.72 715.223C294.555 714.43 284.074 709.559 276.276 701.544L157.271 579.225C144.266 565.86 140.745 545.926 148.387 528.927C148.387 528.927 221.973 367.509 224.706 359.115C227.439 350.721 237.469 277.508 243.413 238.177C244.989 227.754 250.144 218.199 257.996 211.149L398.775 84.7492C418.361 67.1644 448.762 69.7703 465.057 90.4306L583.318 240.376C590.009 248.863 593.438 259.409 593.488 270.207C593.624 298.616 595.972 356.941 611.708 394.507C627.017 431.047 655.112 470.511 669.796 489.929C675.43 497.382 676.293 507.46 671.533 515.498C661.17 533.011 640.695 566.635 611.708 609.777C591.724 639.523 582.464 676.293 578.288 707.265Z" fill="black"/>
</g>
<path d="M574.075 701.06C569.86 732.359 539.229 756.81 508.788 748.369C465.415 736.42 415.195 717.784 370.008 714.311C364.051 713.853 300.752 709.054 300.752 709.054C289.556 708.257 279.046 703.364 271.226 695.313L151.892 572.438C138.851 559.012 135.321 538.988 142.984 521.912C142.984 521.912 216.774 359.76 219.514 351.328C222.255 342.895 232.312 269.35 238.273 229.84C239.852 219.37 245.022 209.772 252.896 202.69L394.064 75.7153C413.704 58.0506 444.19 60.6683 460.529 81.4225L579.118 232.049C585.828 240.575 589.266 251.169 589.317 262.016C589.452 290.554 591.807 349.144 607.587 386.88C622.938 423.587 651.111 463.23 665.835 482.736C671.485 490.223 672.351 500.347 667.577 508.422C657.186 526.014 636.654 559.791 607.587 603.128C587.548 633.01 578.262 669.947 574.075 701.06Z" fill="#0E0E0E"/>
<path d="M284.085 704.601C339.504 592.092 337.958 511.49 314.376 453.967C292.673 401.034 252.308 367.645 220.492 346.925C219.822 349.918 218.851 352.84 217.592 355.646L142.982 521.912C135.319 538.988 138.849 559.012 151.89 572.439L271.224 695.313C274.968 699.167 279.328 702.298 284.085 704.601Z" fill="url(#paint2_radial_1_32)"/>
<path d="M508.803 748.352C539.237 756.794 569.864 732.343 574.078 701.043C577.707 674.097 585.156 642.777 600.106 615.46C565.805 541.624 524.326 503.335 478.854 486.364C430.721 468.401 378.115 474.323 324.814 487.267C336.73 541.492 329.597 612.311 284.148 704.591C289.323 707.096 294.966 708.622 300.797 709.038C300.797 709.038 333.593 711.8 372.596 714.56C411.6 717.32 469.641 737.492 508.803 748.352Z" fill="url(#paint3_radial_1_32)"/>
<path d="M434.9 476.244C449.876 477.808 464.553 481.036 478.839 486.366C524.319 503.338 565.807 541.629 600.114 615.458C602.42 611.243 604.908 607.123 607.588 603.128C636.653 559.79 657.185 526.013 667.576 508.421C672.35 500.346 671.484 490.223 665.832 482.736C651.11 463.229 622.937 423.587 607.588 386.88C591.806 349.143 589.451 290.554 589.317 262.016C589.265 251.169 585.827 240.575 579.117 232.049L460.528 81.4221C459.895 80.6166 459.239 79.8387 458.564 79.0881C467.265 107.604 466.675 130.543 461.307 151.397C456.331 170.728 447.246 188.268 437.65 206.794L437.648 206.797C434.429 213.01 431.155 219.335 427.956 225.876C415.224 251.919 403.729 281.39 402.034 320.909C400.337 360.429 408.439 409.998 434.903 476.242L434.9 476.244Z" fill="url(#paint4_radial_1_32)"/>
<path d="M434.883 476.242C408.421 410 400.316 360.429 402.012 320.907C403.709 281.385 415.204 251.914 427.937 225.87C431.136 219.327 434.413 213.002 437.632 206.788C447.226 188.261 456.311 170.723 461.287 151.393C466.656 130.535 467.245 107.59 458.535 79.0617C441.806 60.494 412.926 58.7442 394.058 75.7153L252.89 202.69C245.016 209.772 239.846 219.37 238.267 229.84L221.082 343.759C220.922 344.816 220.725 345.866 220.492 346.909C252.309 367.63 292.681 401.022 314.386 453.962C318.625 464.303 322.152 475.386 324.765 487.27C362.251 478.167 399.394 472.537 434.883 476.242Z" fill="url(#paint5_radial_1_32)"/>
<path fill-rule="evenodd" clip-rule="evenodd" d="M402.289 318.305C400.587 357.508 405.481 402.481 431.889 468.586L423.596 467.838C399.904 398.855 394.748 363.486 396.474 323.74C398.2 283.975 411.049 253.396 423.854 227.313C427.096 220.707 434.663 208.302 437.901 202.075C447.489 183.639 453.869 173.9 459.348 157.049C467.004 133.503 465.348 122.351 464.475 111.252C470.554 151.372 447.481 186.259 430.038 221.791C417.332 247.675 403.989 279.119 402.289 318.305Z" fill="url(#paint6_radial_1_32)"/>
<path fill-rule="evenodd" clip-rule="evenodd" d="M322.184 456.883C325.316 464.125 328.275 469.973 330.142 478.934L323.222 480.49C320.343 470.026 318.118 462.582 314.134 453.606C290.288 397.349 252.018 368.411 220.744 347.186C258.52 367.509 297.292 399.319 322.184 456.883Z" fill="url(#paint7_radial_1_32)"/>
<path fill-rule="evenodd" clip-rule="evenodd" d="M330.544 486.012C343.758 547.502 329.017 625.62 285.576 701.555C321.887 626.299 339.489 554.02 324.829 487.238L330.544 486.012Z" fill="url(#paint8_radial_1_32)"/>
<path fill-rule="evenodd" clip-rule="evenodd" d="M480.479 480.481C551.703 507.135 579.127 565.659 599.626 614.479C574.309 563.358 539.113 506.902 477.923 485.946C431.365 470.001 392.044 471.892 324.825 487.147L323.326 480.481C394.666 464.228 431.965 462.327 480.479 480.481Z" fill="url(#paint9_radial_1_32)"/>
<g style="mix-blend-mode:screen" filter="url(#filter1_i_1_32)">
<path fill-rule="evenodd" clip-rule="evenodd" d="M833 259.119C833 249.242 833.004 239.364 832.943 229.486C832.894 221.165 832.798 212.846 832.572 204.529C832.083 186.402 831.014 168.119 827.79 150.194C824.52 132.01 819.181 115.086 810.767 98.5644C802.496 82.3253 791.691 67.4655 778.799 54.5826C765.91 41.6998 751.046 30.902 734.801 22.6356C718.263 14.2197 701.321 8.88238 683.117 5.61396C665.19 2.39502 646.902 1.32776 628.775 0.838055C620.452 0.612891 612.129 0.517979 603.804 0.466484C593.921 0.405901 584.038 0.41095 574.155 0.41095L459.404 0H373.58L260.86 0.41095C250.958 0.41095 241.055 0.405901 231.153 0.466484C222.811 0.517979 214.473 0.612891 206.134 0.838055C187.964 1.32776 169.635 2.39603 151.666 5.61901C133.437 8.88641 116.47 14.2217 99.9093 22.6315C83.6299 30.899 68.7338 41.6978 55.8177 54.5826C42.9036 67.4645 32.0786 82.3213 23.792 98.5573C15.3549 115.087 10.0055 132.021 6.72804 150.215C3.50103 168.133 2.43176 186.41 1.94003 204.529C1.71588 212.847 1.61895 221.166 1.56846 229.486C1.50788 239.365 1 251.636 1 261.514L1.00303 372.672L1 459.416L1.51293 572.936C1.51293 582.827 1.50889 592.718 1.56846 602.609C1.61895 610.941 1.71588 619.271 1.94104 627.6C2.43176 645.751 3.50305 664.06 6.73308 682.009C10.0096 700.217 15.358 717.165 23.7879 733.708C32.0756 749.971 42.9026 764.85 55.8177 777.751C68.7328 790.652 83.6249 801.464 99.9012 809.742C116.472 818.169 133.448 823.513 151.687 826.786C169.648 830.01 187.971 831.079 206.134 831.569C214.473 831.794 222.812 831.89 231.154 831.94C241.056 832.001 250.958 831.997 260.86 831.997L374.599 832H460.636L574.155 831.996C584.038 831.996 593.921 832.001 603.804 831.94C612.129 831.89 620.452 831.794 628.775 831.569C646.909 831.078 665.203 830.008 683.138 826.782C701.331 823.509 718.264 818.167 734.794 809.745C751.042 801.468 765.909 790.654 778.799 777.751C791.689 764.852 802.493 749.975 810.764 733.715C819.183 717.164 824.522 700.208 827.794 681.988C831.015 664.046 832.083 645.744 832.573 627.6C832.798 619.27 832.894 610.94 832.943 602.609C833.005 592.718 833 582.827 833 572.936C833 572.936 832.994 461.42 832.994 459.416V372.581C832.994 371.101 833 259.119 833 259.119Z" fill="black"/>
</g>
</g>
<defs>
<filter id="filter0_f_1_32" x="126.393" y="55.08" width="566.23" height="718.957" filterUnits="userSpaceOnUse" color-interpolation-filters="sRGB">
<feFlood flood-opacity="0" result="BackgroundImageFix"/>
<feBlend mode="normal" in="SourceGraphic" in2="BackgroundImageFix" result="shape"/>
<feGaussianBlur stdDeviation="9" result="effect1_foregroundBlur_1_32"/>
</filter>
<filter id="filter1_i_1_32" x="1" y="0" width="832" height="833" filterUnits="userSpaceOnUse" color-interpolation-filters="sRGB">
<feFlood flood-opacity="0" result="BackgroundImageFix"/>
<feBlend mode="normal" in="SourceGraphic" in2="BackgroundImageFix" result="shape"/>
<feColorMatrix in="SourceAlpha" type="matrix" values="0 0 0 0 0 0 0 0 0 0 0 0 0 0 0 0 0 0 127 0" result="hardAlpha"/>
<feOffset dy="6"/>
<feGaussianBlur stdDeviation="0.5"/>
<feComposite in2="hardAlpha" operator="arithmetic" k2="-1" k3="1"/>
<feColorMatrix type="matrix" values="0 0 0 0 1 0 0 0 0 1 0 0 0 0 1 0 0 0 0.07 0"/>
<feBlend mode="normal" in2="shape" result="effect1_innerShadow_1_32"/>
</filter>
<radialGradient id="paint0_radial_1_32" cx="0" cy="0" r="1" gradientUnits="userSpaceOnUse" gradientTransform="translate(416 521.793) rotate(90) scale(339.695 441.724)">
<stop stop-opacity="0.35"/>
<stop offset="1" stop-opacity="0"/>
</radialGradient>
<radialGradient id="paint1_radial_1_32" cx="0" cy="0" r="1" gradientUnits="userSpaceOnUse" gradientTransform="translate(416) rotate(90) scale(832)">
<stop stop-color="white" stop-opacity="0.05"/>
<stop offset="1" stop-color="white" stop-opacity="0"/>
</radialGradient>
<radialGradient id="paint2_radial_1_32" cx="0" cy="0" r="1" gradientUnits="userSpaceOnUse" gradientTransform="translate(278.125 693.495) rotate(-104.574) scale(312.164 208.025)">
<stop stop-color="white" stop-opacity="0.44"/>
<stop offset="1" stop-color="#333333" stop-opacity="0.52"/>
</radialGradient>
<radialGradient id="paint3_radial_1_32" cx="0" cy="0" r="1" gradientUnits="userSpaceOnUse" gradientTransform="translate(515.433 764.994) rotate(-119.744) scale(268.784 268.784)">
<stop stop-color="#565656"/>
<stop offset="1" stop-color="#151515" stop-opacity="0.71"/>
</radialGradient>
<radialGradient id="paint4_radial_1_32" cx="0" cy="0" r="1" gradientUnits="userSpaceOnUse" gradientTransform="translate(544.182 565.139) rotate(-82.4846) scale(512.246 378.451)">
<stop stop-color="#7E7E7E" stop-opacity="0.91"/>
<stop offset="1" stop-color="#1E1E1E" stop-opacity="0.6"/>
</radialGradient>
<radialGradient id="paint5_radial_1_32" cx="0" cy="0" r="1" gradientUnits="userSpaceOnUse" gradientTransform="translate(327.946 500.744) rotate(-66.5392) scale(476.11 324.696)">
<stop stop-color="#D7D7D7"/>
<stop offset="1" stop-color="#414141"/>
</radialGradient>
<radialGradient id="paint6_radial_1_32" cx="0" cy="0" r="1" gradientUnits="userSpaceOnUse" gradientTransform="translate(477.183 235.508) rotate(102.236) scale(227.604 153.482)">
<stop stop-color="white" stop-opacity="0"/>
<stop offset="1" stop-color="white" stop-opacity="0.17"/>
</radialGradient>
<radialGradient id="paint7_radial_1_32" cx="0" cy="0" r="1" gradientUnits="userSpaceOnUse" gradientTransform="translate(210.529 358.785) rotate(45.3237) scale(167.71 357.205)">
<stop stop-color="white" stop-opacity="0.2"/>
<stop offset="1" stop-color="white" stop-opacity="0.44"/>
</radialGradient>
<radialGradient id="paint8_radial_1_32" cx="0" cy="0" r="1" gradientUnits="userSpaceOnUse" gradientTransform="translate(337.145 438.142) rotate(80.2016) scale(196.566 417.419)">
<stop stop-color="white" stop-opacity="0.12"/>
<stop offset="1" stop-color="white" stop-opacity="0.35"/>
</radialGradient>
<radialGradient id="paint9_radial_1_32" cx="0" cy="0" r="1" gradientUnits="userSpaceOnUse" gradientTransform="translate(597.78 598.636) rotate(-152.297) scale(299.519 942.568)">
<stop stop-color="white" stop-opacity="0.21"/>
<stop offset="0.46738" stop-color="white" stop-opacity="0.19"/>
<stop offset="1" stop-color="white" stop-opacity="0.29"/>
</radialGradient>
</defs>
</svg>
