<svg width="852" height="852" viewBox="0 0 852 852" fill="none" xmlns="http://www.w3.org/2000/svg">
<g filter="url(#filter0_d_104_2)">
<path fill-rule="evenodd" clip-rule="evenodd" d="M842 259.119C842 249.242 842.004 239.364 841.943 229.486C841.894 221.165 841.798 212.846 841.572 204.529C841.083 186.402 840.014 168.119 836.79 150.194C833.52 132.01 828.181 115.086 819.767 98.5644C811.496 82.3253 800.691 67.4655 787.799 54.5826C774.91 41.6998 760.046 30.902 743.801 22.6356C727.263 14.2197 710.321 8.88238 692.117 5.61396C674.19 2.39502 655.902 1.32776 637.775 0.838055C629.452 0.612891 621.129 0.517979 612.804 0.466484C602.921 0.405901 593.038 0.41095 583.155 0.41095L468.404 0H382.58L269.86 0.41095C259.958 0.41095 250.055 0.405901 240.153 0.466484C231.811 0.517979 223.473 0.612891 215.134 0.838055C196.964 1.32776 178.635 2.39603 160.666 5.61901C142.437 8.88641 125.47 14.2217 108.909 22.6315C92.6299 30.899 77.7338 41.6978 64.8177 54.5826C51.9036 67.4645 41.0786 82.3213 32.792 98.5573C24.3549 115.087 19.0055 132.021 15.728 150.215C12.501 168.133 11.4318 186.41 10.94 204.529C10.7159 212.847 10.6189 221.166 10.5685 229.486C10.5079 239.365 10 251.636 10 261.514L10.003 372.672L10 459.416L10.5129 572.936C10.5129 582.827 10.5089 592.718 10.5685 602.609C10.6189 610.941 10.7159 619.271 10.941 627.6C11.4318 645.751 12.503 664.06 15.7331 682.009C19.0096 700.217 24.358 717.165 32.7879 733.708C41.0756 749.971 51.9026 764.85 64.8177 777.751C77.7328 790.652 92.6249 801.464 108.901 809.742C125.472 818.169 142.448 823.513 160.687 826.786C178.648 830.01 196.971 831.079 215.134 831.569C223.473 831.794 231.812 831.89 240.154 831.94C250.056 832.001 259.958 831.997 269.86 831.997L383.599 832H469.636L583.155 831.996C593.038 831.996 602.921 832.001 612.804 831.94C621.129 831.89 629.452 831.794 637.775 831.569C655.909 831.078 674.203 830.008 692.138 826.782C710.331 823.509 727.264 818.167 743.794 809.745C760.042 801.468 774.909 790.654 787.799 777.751C800.689 764.852 811.493 749.975 819.764 733.715C828.183 717.164 833.522 700.208 836.794 681.988C840.015 664.046 841.083 645.744 841.573 627.6C841.798 619.27 841.894 610.94 841.943 602.609C842.005 592.718 842 582.827 842 572.936C842 572.936 841.994 461.42 841.994 459.416V372.581C841.994 371.101 842 259.119 842 259.119Z" fill="#1B1B1B"/>
</g>
<g filter="url(#filter1_f_104_2)">
<path d="M594.525 712.272C590.307 743.43 559.645 767.771 529.175 759.367C485.759 747.472 435.489 728.92 390.258 725.463C384.294 725.008 320.933 720.23 320.933 720.23C309.726 719.437 299.206 714.566 291.378 706.551L171.926 584.232C158.872 570.867 155.338 550.933 163.009 533.934C163.009 533.934 236.872 372.516 239.615 364.122C242.358 355.728 252.426 282.515 258.392 243.184C259.973 232.761 265.148 223.206 273.029 216.156L414.337 89.7562C433.997 72.1713 464.513 74.7772 480.868 95.4375L599.574 245.383C606.29 253.87 609.732 264.416 609.783 275.214C609.918 303.623 612.276 361.948 628.071 399.514C643.437 436.054 671.638 475.518 686.377 494.936C692.032 502.389 692.899 512.467 688.12 520.505C677.719 538.018 657.167 571.642 628.071 614.784C608.012 644.53 598.717 681.3 594.525 712.272Z" fill="black" fill-opacity="0.29"/>
</g>
<path d="M595.681 707.067C591.467 738.366 560.836 762.817 530.395 754.376C487.022 742.427 436.802 723.791 391.615 720.318C385.657 719.86 322.359 715.061 322.359 715.061C311.162 714.264 300.653 709.371 292.833 701.32L173.499 578.445C160.457 565.019 156.927 544.995 164.59 527.919C164.59 527.919 238.38 365.767 241.121 357.335C243.861 348.902 253.919 275.357 259.879 235.847C261.459 225.377 266.629 215.779 274.502 208.697L415.671 81.7223C435.311 64.0575 465.797 66.6753 482.136 87.4294L600.725 238.056C607.434 246.582 610.873 257.176 610.923 268.023C611.059 296.561 613.414 355.151 629.194 392.887C644.545 429.594 672.717 469.237 687.442 488.743C693.091 496.23 693.957 506.354 689.184 514.428C678.792 532.021 658.261 565.798 629.194 609.135C609.155 639.017 599.869 675.954 595.681 707.067Z" fill="#FFD37D"/>
<path d="M305.692 710.608C361.11 598.099 359.564 517.497 335.983 459.974C314.28 407.041 273.915 373.652 242.099 352.932C241.429 355.925 240.457 358.847 239.199 361.653L164.589 527.919C156.925 544.995 160.455 565.019 173.497 578.445L292.831 701.32C296.575 705.174 300.935 708.305 305.692 710.608Z" fill="url(#paint0_radial_104_2)"/>
<path d="M530.409 754.359C560.844 762.801 591.471 738.35 595.684 707.05C599.314 680.104 606.763 648.784 621.713 621.467C587.411 547.631 545.932 509.342 500.461 492.371C452.328 474.408 399.722 480.33 346.421 493.274C358.337 547.499 351.204 618.318 305.754 710.598C310.93 713.103 316.573 714.629 322.404 715.045C322.404 715.045 355.2 717.807 394.203 720.567C433.206 723.327 491.248 743.499 530.409 754.359Z" fill="url(#paint1_radial_104_2)"/>
<path d="M456.507 482.251C471.482 483.815 486.16 487.043 500.446 492.373C545.926 509.345 587.414 547.636 621.721 621.465C624.027 617.25 626.514 613.13 629.194 609.135C658.26 565.797 678.791 532.02 689.183 514.428C693.956 506.353 693.09 496.23 687.439 488.743C672.716 469.236 644.543 429.594 629.194 392.887C613.413 355.15 611.058 296.561 610.924 268.023C610.872 257.176 607.433 246.582 600.723 238.056L482.135 87.4291C481.502 86.6236 480.845 85.8457 480.17 85.0951C488.872 113.611 488.282 136.55 482.914 157.404C477.938 176.735 468.853 194.275 459.257 212.801L459.255 212.804C456.036 219.017 452.761 225.342 449.562 231.883C436.831 257.926 425.336 287.397 423.641 326.916C421.944 366.436 430.046 416.005 456.51 482.249L456.507 482.251Z" fill="url(#paint2_radial_104_2)"/>
<path d="M456.49 482.249C430.027 416.007 421.922 366.436 423.619 326.914C425.316 287.392 436.811 257.921 449.544 231.877C452.743 225.334 456.019 219.009 459.239 212.794C468.833 194.268 477.918 176.73 482.894 157.4C488.262 136.542 488.852 113.597 480.142 85.0687C463.413 66.501 434.533 64.7512 415.665 81.7223L274.496 208.697C266.623 215.779 261.453 225.377 259.873 235.847L242.688 349.766C242.529 350.822 242.332 351.873 242.099 352.916C273.916 373.637 314.288 407.029 335.992 459.969C340.232 470.31 343.759 481.393 346.372 493.277C383.857 484.174 421.001 478.544 456.49 482.249Z" fill="url(#paint3_radial_104_2)"/>
<path fill-rule="evenodd" clip-rule="evenodd" d="M423.896 324.311C422.194 363.515 427.088 408.488 453.495 474.593L445.203 473.845C421.511 404.862 416.355 369.493 418.08 329.747C419.807 289.981 432.655 259.403 445.46 233.32C448.703 226.714 456.27 214.309 459.508 208.082C469.095 189.646 475.476 179.907 480.955 163.056C488.611 139.51 486.954 128.358 486.082 117.259C492.16 157.379 469.088 192.266 451.645 227.798C438.939 253.682 425.596 285.126 423.896 324.311Z" fill="url(#paint4_radial_104_2)" fill-opacity="0.7"/>
<path fill-rule="evenodd" clip-rule="evenodd" d="M343.791 462.89C346.923 470.132 349.881 475.98 351.749 484.941L344.829 486.497C341.95 476.033 339.725 468.589 335.74 459.613C311.894 403.356 273.625 374.418 242.35 353.193C280.126 373.516 318.898 405.326 343.791 462.89Z" fill="url(#paint5_radial_104_2)"/>
<path fill-rule="evenodd" clip-rule="evenodd" d="M352.151 492.019C365.365 553.509 350.624 631.627 307.183 707.562C343.493 632.306 361.096 560.027 346.436 493.245L352.151 492.019Z" fill="url(#paint6_radial_104_2)"/>
<path fill-rule="evenodd" clip-rule="evenodd" d="M502.085 486.488C573.31 513.142 600.734 571.666 621.233 620.486C595.916 569.365 560.72 512.909 499.53 491.953C452.971 476.008 413.651 477.898 346.431 493.154L344.933 486.488C416.273 470.234 453.572 468.334 502.085 486.488Z" fill="url(#paint7_radial_104_2)"/>
<defs>
<filter id="filter0_d_104_2" x="0" y="0" width="852" height="852" filterUnits="userSpaceOnUse" color-interpolation-filters="sRGB">
<feFlood flood-opacity="0" result="BackgroundImageFix"/>
<feColorMatrix in="SourceAlpha" type="matrix" values="0 0 0 0 0 0 0 0 0 0 0 0 0 0 0 0 0 0 127 0" result="hardAlpha"/>
<feOffset dy="10"/>
<feGaussianBlur stdDeviation="5"/>
<feColorMatrix type="matrix" values="0 0 0 0 0 0 0 0 0 0 0 0 0 0 0 0 0 0 0.3 0"/>
<feBlend mode="normal" in2="BackgroundImageFix" result="effect1_dropShadow_104_2"/>
<feBlend mode="normal" in="SourceGraphic" in2="effect1_dropShadow_104_2" result="shape"/>
</filter>
<filter id="filter1_f_104_2" x="146" y="65.0869" width="558.222" height="708.957" filterUnits="userSpaceOnUse" color-interpolation-filters="sRGB">
<feFlood flood-opacity="0" result="BackgroundImageFix"/>
<feBlend mode="normal" in="SourceGraphic" in2="BackgroundImageFix" result="shape"/>
<feGaussianBlur stdDeviation="6.5" result="effect1_foregroundBlur_104_2"/>
</filter>
<radialGradient id="paint0_radial_104_2" cx="0" cy="0" r="1" gradientUnits="userSpaceOnUse" gradientTransform="translate(299.732 699.502) rotate(-104.574) scale(312.164 208.025)">
<stop stop-color="white" stop-opacity="0.4"/>
<stop offset="1" stop-opacity="0.1"/>
</radialGradient>
<radialGradient id="paint1_radial_104_2" cx="0" cy="0" r="1" gradientUnits="userSpaceOnUse" gradientTransform="translate(516.431 769.442) rotate(-115.936) scale(257.775 295.978)">
<stop stop-color="white" stop-opacity="0.3"/>
<stop offset="1" stop-opacity="0.25"/>
</radialGradient>
<radialGradient id="paint2_radial_104_2" cx="0" cy="0" r="1" gradientUnits="userSpaceOnUse" gradientTransform="translate(565.789 571.146) rotate(-82.4846) scale(512.246 378.451)">
<stop stop-color="white" stop-opacity="0.55"/>
<stop offset="1" stop-color="white" stop-opacity="0.05"/>
</radialGradient>
<radialGradient id="paint3_radial_104_2" cx="0" cy="0" r="1" gradientUnits="userSpaceOnUse" gradientTransform="translate(318.437 481.212) rotate(-77.7214) scale(437.431 298.317)">
<stop stop-color="white" stop-opacity="0.83"/>
<stop offset="1" stop-color="white" stop-opacity="0.4"/>
</radialGradient>
<radialGradient id="paint4_radial_104_2" cx="0" cy="0" r="1" gradientUnits="userSpaceOnUse" gradientTransform="translate(498.789 241.515) rotate(102.236) scale(227.604 153.482)">
<stop stop-color="white" stop-opacity="0"/>
<stop offset="1" stop-color="white" stop-opacity="0.17"/>
</radialGradient>
<radialGradient id="paint5_radial_104_2" cx="0" cy="0" r="1" gradientUnits="userSpaceOnUse" gradientTransform="translate(232.136 364.792) rotate(45.3237) scale(167.71 357.205)">
<stop stop-color="white" stop-opacity="0.2"/>
<stop offset="1" stop-color="white" stop-opacity="0.44"/>
</radialGradient>
<radialGradient id="paint6_radial_104_2" cx="0" cy="0" r="1" gradientUnits="userSpaceOnUse" gradientTransform="translate(358.751 444.149) rotate(80.2016) scale(196.566 417.419)">
<stop stop-color="white" stop-opacity="0.12"/>
<stop offset="1" stop-color="white" stop-opacity="0.35"/>
</radialGradient>
<radialGradient id="paint7_radial_104_2" cx="0" cy="0" r="1" gradientUnits="userSpaceOnUse" gradientTransform="translate(619.387 604.643) rotate(-152.297) scale(299.519 942.568)">
<stop stop-color="white" stop-opacity="0.21"/>
<stop offset="0.46738" stop-color="white" stop-opacity="0.19"/>
<stop offset="1" stop-color="white" stop-opacity="0.29"/>
</radialGradient>
</defs>
</svg>
